<svg width="42" height="42" viewBox="0 0 42 42" fill="none" xmlns="http://www.w3.org/2000/svg">
<path d="M25.8839 21.1161C26.372 21.6043 26.372 22.3957 25.8839 22.8839C25.3957 23.372 24.6043 23.372 24.1161 22.8839L25.8839 21.1161ZM17.8839 22.8839C17.3957 23.372 16.6043 23.372 16.1161 22.8839C15.628 22.3957 15.628 21.6043 16.1161 21.1161L17.8839 22.8839ZM22.2374 17.4697L25.8839 21.1161L24.1161 22.8839L20.4697 19.2374L22.2374 17.4697ZM21.5303 19.2374L17.8839 22.8839L16.1161 21.1161L19.7626 17.4697L21.5303 19.2374ZM20.4697 19.2374C20.7626 19.5303 21.2374 19.5303 21.5303 19.2374L19.7626 17.4697C20.446 16.7863 21.554 16.7863 22.2374 17.4697L20.4697 19.2374Z" fill="black" fill-opacity="0.3"/>
</svg>
