<svg width="32" height="32" viewBox="0 0 32 32" fill="none" xmlns="http://www.w3.org/2000/svg">
<path d="M8.49996 14.4997C7.67153 14.4997 6.99995 15.1712 6.99994 15.9997C6.99993 16.8281 7.67149 17.4997 8.49992 17.4997L8.49996 14.4997ZM23.3726 15.9999L24.4332 17.0605C25.019 16.4747 25.019 15.525 24.4332 14.9392L23.3726 15.9999ZM18.4332 8.93922C17.8474 8.35343 16.8977 8.35343 16.3119 8.93921C15.7261 9.525 15.7261 10.4747 16.3119 11.0605L18.4332 8.93922ZM16.3119 20.9392C15.7261 21.525 15.7261 22.4747 16.3119 23.0605C16.8977 23.6463 17.8474 23.6463 18.4332 23.0605L16.3119 20.9392ZM8.49992 17.4997L23.3725 17.4999L23.3726 14.4999L8.49996 14.4997L8.49992 17.4997ZM24.4332 14.9392L18.4332 8.93922L16.3119 11.0605L22.3119 17.0605L24.4332 14.9392ZM22.3119 14.9392L16.3119 20.9392L18.4332 23.0605L24.4332 17.0605L22.3119 14.9392Z" fill="#0C0118"/>
</svg>
