<svg width="24" height="24" viewBox="0 0 24 24" fill="none" xmlns="http://www.w3.org/2000/svg">
<path d="M11.775 18.2035C11.1892 18.7893 10.2395 18.7893 9.6537 18.2035C9.06791 17.6177 9.06791 16.6679 9.6537 16.0822L11.775 18.2035ZM9.6537 7.91777C9.06791 7.33198 9.06791 6.38223 9.6537 5.79645C10.2395 5.21066 11.1892 5.21066 11.775 5.79645L9.6537 7.91777ZM15.4026 11.5454L14.342 12.6061L15.4026 11.5454ZM16.4633 13.5152L11.775 18.2035L9.6537 16.0822L14.342 11.3939L16.4633 13.5152ZM14.342 12.6061L9.6537 7.91777L11.775 5.79645L16.4633 10.4847L14.342 12.6061ZM14.342 11.3939C14.0072 11.7286 14.0072 12.2713 14.342 12.6061L16.4633 10.4847C17.3001 11.3216 17.3001 12.6784 16.4633 13.5152L14.342 11.3939Z" fill="white"/>
</svg>
