<svg width="11" height="11" viewBox="0 0 11 11" fill="none" xmlns="http://www.w3.org/2000/svg">
<g clip-path="url(#clip0)">
<path d="M5.66301 10.013C6.05353 10.4035 6.6867 10.4035 7.07722 10.013C7.46775 9.62249 7.46775 8.98933 7.07722 8.5988L5.66301 10.013ZM7.07722 2.23484C7.46775 1.84432 7.46775 1.21115 7.07722 0.820627C6.6867 0.430103 6.05353 0.430103 5.66301 0.820627L7.07722 2.23484ZM3.07029 7.42029L5.66301 10.013L7.07722 8.5988L4.4845 6.00608L3.07029 7.42029ZM4.4845 4.82757L7.07722 2.23484L5.66301 0.820627L3.07029 3.41335L4.4845 4.82757ZM4.4845 6.00608C4.15906 5.68064 4.15906 5.153 4.4845 4.82757L3.07029 3.41335C1.9638 4.51984 1.9638 6.3138 3.07029 7.42029L4.4845 6.00608Z" fill="black"/>
</g>
<defs>
<clipPath id="clip0">
<rect width="11" height="11" fill="white"/>
</clipPath>
</defs>
</svg>
