<svg width="54" height="54" viewBox="0 0 54 54" fill="none" xmlns="http://www.w3.org/2000/svg">
<path d="M0 27C0 12.0884 12.0884 0 27 0C41.9116 0 54 12.0884 54 27C54 41.9116 41.9116 54 27 54C12.0884 54 0 41.9116 0 27Z" fill="#007AFF"/>
<path fill-rule="evenodd" clip-rule="evenodd" d="M26.6291 22.5505C26.6291 21.5098 26.3565 20.6178 25.8129 19.871C24.907 18.6549 23.3712 18.0317 21.2003 18H12.5999V35.5573H20.6195C21.5238 35.5573 22.3603 35.4805 23.1341 35.3217C23.908 35.1614 24.5768 34.869 25.1441 34.4397C25.6487 34.0656 26.0686 33.6044 26.4039 33.0582C26.9339 32.2329 27.1981 31.2991 27.1981 30.2583C27.1981 29.2493 26.9661 28.3907 26.5055 27.6858C26.0398 26.9791 25.3557 26.4629 24.4481 26.1356C25.0459 25.8348 25.498 25.5007 25.8062 25.1366C26.3565 24.4851 26.6291 23.6214 26.6291 22.5505ZM38.6297 21.0036H31.003V18.8186H38.6297V21.0036ZM31.892 27.781C32.0173 26.9357 32.3238 26.2658 32.8098 25.7713C33.2958 25.2768 33.9832 25.0296 34.8638 25.0296C35.6766 25.0296 36.3556 25.2618 36.9076 25.7279C37.4529 26.1973 37.7611 26.8788 37.8237 27.781H31.892ZM37.9575 22.8378C38.877 23.2422 39.6339 23.8836 40.2299 24.759C40.7735 25.5308 41.1223 26.4261 41.2814 27.4435C41.3746 28.0383 41.4118 28.9002 41.3966 30.0212H31.8073C31.8649 31.3225 32.3187 32.2363 33.1857 32.7592C33.7106 33.0849 34.3422 33.2486 35.0839 33.2486C35.8646 33.2486 36.5029 33.0498 36.9923 32.6539C37.2615 32.4385 37.4986 32.141 37.7018 31.7602H41.2154C41.1223 32.5286 40.6956 33.3122 39.9403 34.1073C38.7618 35.3685 37.1108 36 34.9891 36C33.2365 36 31.6905 35.4688 30.3544 34.403C29.0116 33.3388 28.3445 31.6049 28.3445 29.2059C28.3445 26.9557 28.949 25.23 30.1563 24.029C31.3671 22.8312 32.9334 22.2281 34.8621 22.2281C36.0085 22.2281 37.0396 22.4319 37.9575 22.8378ZM16.1475 32.5103V27.8278H20.5298C21.2918 27.8344 21.8861 27.9347 22.3095 28.1251C23.0664 28.4676 23.4423 29.094 23.4423 30.0095C23.4423 31.0886 23.0529 31.817 22.2722 32.2012C21.8438 32.4066 21.2409 32.5103 20.4688 32.5103H16.1475ZM16.1475 21.0487V24.9227H20.4756C21.2461 24.9227 21.8743 24.7773 22.3586 24.4866C22.8394 24.1961 23.0817 23.6815 23.0817 22.9464C23.0817 22.1262 22.7633 21.5866 22.1265 21.3227C21.5746 21.1406 20.8735 21.0487 20.0218 21.0487H16.1475Z" fill="white"/>
</svg>
