<svg width="18" height="18" viewBox="0 0 18 18" fill="none" xmlns="http://www.w3.org/2000/svg">
<path d="M6.75 3.1875C7.26777 3.1875 7.6875 2.76777 7.6875 2.25C7.6875 1.73223 7.26777 1.3125 6.75 1.3125V3.1875ZM16.6875 11.25C16.6875 10.7322 16.2678 10.3125 15.75 10.3125C15.2322 10.3125 14.8125 10.7322 14.8125 11.25H16.6875ZM5.25 16.6875H12.75V14.8125H5.25V16.6875ZM1.3125 5.25V12.75H3.1875V5.25H1.3125ZM6.75 1.3125H5.25V3.1875H6.75V1.3125ZM16.6875 12.75V11.25H14.8125V12.75H16.6875ZM3.1875 5.25C3.1875 4.11091 4.11091 3.1875 5.25 3.1875V1.3125C3.07538 1.3125 1.3125 3.07538 1.3125 5.25H3.1875ZM12.75 16.6875C14.9246 16.6875 16.6875 14.9246 16.6875 12.75H14.8125C14.8125 13.8891 13.8891 14.8125 12.75 14.8125V16.6875ZM5.25 14.8125C4.11091 14.8125 3.1875 13.8891 3.1875 12.75H1.3125C1.3125 14.9246 3.07538 16.6875 5.25 16.6875V14.8125Z" fill="white"/>
<path d="M9.08709 7.58709C8.72097 7.9532 8.72097 8.5468 9.08709 8.91291C9.4532 9.27903 10.0468 9.27903 10.4129 8.91291L9.08709 7.58709ZM15.75 2.25H16.6875C16.6875 1.73223 16.2678 1.3125 15.75 1.3125V2.25ZM11.25 1.3125C10.7322 1.3125 10.3125 1.73223 10.3125 2.25C10.3125 2.76777 10.7322 3.1875 11.25 3.1875V1.3125ZM14.8125 6.75C14.8125 7.26777 15.2322 7.6875 15.75 7.6875C16.2678 7.6875 16.6875 7.26777 16.6875 6.75H14.8125ZM10.4129 8.91291L16.4129 2.91291L15.0871 1.58709L9.08709 7.58709L10.4129 8.91291ZM15.75 1.3125H11.25V3.1875H15.75V1.3125ZM14.8125 2.25V6.75H16.6875V2.25H14.8125Z" fill="white"/>
</svg>
