<svg width="22" height="22" viewBox="0 0 22 22" fill="none" xmlns="http://www.w3.org/2000/svg">
<path d="M8.25 3.75C8.80228 3.75 9.25 3.30228 9.25 2.75C9.25 2.19772 8.80228 1.75 8.25 1.75V3.75ZM20.25 13.75C20.25 13.1977 19.8023 12.75 19.25 12.75C18.6977 12.75 18.25 13.1977 18.25 13.75H20.25ZM6.41667 20.25H15.5833V18.25H6.41667V20.25ZM1.75 6.41667V15.5833H3.75V6.41667H1.75ZM8.25 1.75H6.41667V3.75H8.25V1.75ZM20.25 15.5833V13.75H18.25V15.5833H20.25ZM3.75 6.41667C3.75 4.94391 4.94391 3.75 6.41667 3.75V1.75C3.83934 1.75 1.75 3.83934 1.75 6.41667H3.75ZM15.5833 20.25C18.1607 20.25 20.25 18.1607 20.25 15.5833H18.25C18.25 17.0561 17.0561 18.25 15.5833 18.25V20.25ZM6.41667 18.25C4.94391 18.25 3.75 17.0561 3.75 15.5833H1.75C1.75 18.1607 3.83934 20.25 6.41667 20.25V18.25Z" fill="white"/>
<path d="M11.2099 9.37623C10.8194 9.76675 10.8194 10.3999 11.2099 10.7904C11.6004 11.181 12.2336 11.181 12.6241 10.7904L11.2099 9.37623ZM19.2503 2.75H20.2503C20.2503 2.19772 19.8026 1.75 19.2503 1.75V2.75ZM13.7503 1.75C13.198 1.75 12.7503 2.19772 12.7503 2.75C12.7503 3.30228 13.198 3.75 13.7503 3.75V1.75ZM18.2503 8.25C18.2503 8.80228 18.698 9.25 19.2503 9.25C19.8026 9.25 20.2503 8.80228 20.2503 8.25H18.2503ZM12.6241 10.7904L19.9574 3.45711L18.5432 2.04289L11.2099 9.37623L12.6241 10.7904ZM19.2503 1.75H13.7503V3.75H19.2503V1.75ZM18.2503 2.75V8.25H20.2503V2.75H18.2503Z" fill="white"/>
</svg>
