<svg width="100" height="28" viewBox="0 0 100 28" fill="none" xmlns="http://www.w3.org/2000/svg">
<path d="M13.2905 21.5247L8.10564 9.43412L5.18489 9.43412L0 21.5247H2.94339L6.70187 12.5586L10.5736 21.5247L13.2905 21.5247Z" fill="black"/>
<path d="M20.4986 22.1585C19.2759 22.1585 18.174 21.8943 17.1929 21.366C16.2118 20.8377 15.442 20.1057 14.8835 19.1698C14.3401 18.2189 14.0684 17.1472 14.0684 15.9547C14.0684 14.7623 14.3401 13.6981 14.8835 12.7623C15.442 11.8264 16.2118 11.0944 17.1929 10.5661C18.174 10.0378 19.2759 9.77362 20.4986 9.77362C21.7363 9.77362 22.8457 10.0378 23.8268 10.5661C24.808 11.0944 25.5702 11.8264 26.1136 12.7623C26.6721 13.6981 26.9514 14.7623 26.9514 15.9547C26.9514 17.1472 26.6721 18.2189 26.1136 19.1698C25.5702 20.1057 24.808 20.8377 23.8268 21.366C22.8457 21.8943 21.7363 22.1585 20.4986 22.1585ZM20.4986 19.7359C21.5401 19.7359 22.4004 19.3887 23.0797 18.6943C23.7589 18 24.0985 17.0868 24.0985 15.9547C24.0985 14.8227 23.7589 13.9095 23.0797 13.2151C22.4004 12.5208 21.5401 12.1736 20.4986 12.1736C19.457 12.1736 18.5967 12.5208 17.9174 13.2151C17.2533 13.9095 16.9212 14.8227 16.9212 15.9547C16.9212 17.0868 17.2533 18 17.9174 18.6943C18.5967 19.3887 19.457 19.7359 20.4986 19.7359ZM40.6468 9.90946L35.4619 22H32.5412L27.3563 9.90946H30.2996L34.0581 18.8755L37.9298 9.90946H40.6468ZM53.45 16.0227C53.45 16.2189 53.4349 16.4981 53.4047 16.8604H43.918C44.084 17.751 44.5142 18.4604 45.2085 18.9887C45.9179 19.5019 46.7934 19.7585 47.8349 19.7585C49.1632 19.7585 50.2576 19.3208 51.1179 18.4453L52.6349 20.1887C52.0915 20.8377 51.4047 21.3283 50.5745 21.6604C49.7444 21.9925 48.8085 22.1585 47.767 22.1585C46.4387 22.1585 45.2689 21.8943 44.2576 21.366C43.2463 20.8377 42.4614 20.1057 41.9029 19.1698C41.3595 18.2189 41.0878 17.1472 41.0878 15.9547C41.0878 14.7774 41.3519 13.7208 41.8802 12.7849C42.4236 11.834 43.1708 11.0944 44.1217 10.5661C45.0727 10.0378 46.1444 9.77362 47.3368 9.77362C48.5142 9.77362 49.5632 10.0378 50.484 10.5661C51.4198 11.0793 52.1443 11.8113 52.6576 12.7623C53.1859 13.6981 53.45 14.7849 53.45 16.0227ZM47.3368 12.0378C46.4312 12.0378 45.6613 12.3095 45.0274 12.8529C44.4085 13.3812 44.0312 14.0906 43.8953 14.9812H50.7557C50.6349 14.1057 50.2651 13.3962 49.6462 12.8529C49.0274 12.3095 48.2576 12.0378 47.3368 12.0378ZM56.1686 5.20004H58.9988V22H56.1686V5.20004ZM62.7134 5.20004H65.5435V22H62.7134V5.20004ZM69.2582 5.20004H72.0883V22H69.2582V5.20004ZM80.4218 9.77362C82.2029 9.77362 83.5614 10.2038 84.4973 11.0642C85.4482 11.9095 85.9237 13.1925 85.9237 14.9132V22H83.252V20.5283C82.9048 21.0566 82.4067 21.4642 81.7577 21.7509C81.1237 22.0226 80.3539 22.1585 79.4482 22.1585C78.5426 22.1585 77.7501 22.0075 77.0709 21.7057C76.3916 21.3887 75.8633 20.9585 75.486 20.4151C75.1237 19.8566 74.9426 19.2302 74.9426 18.5359C74.9426 17.4491 75.3426 16.5811 76.1426 15.9321C76.9577 15.2679 78.2331 14.9359 79.969 14.9359H83.0935V14.7547C83.0935 13.9095 82.8369 13.2604 82.3237 12.8076C81.8256 12.3547 81.0784 12.1283 80.0822 12.1283C79.4029 12.1283 78.7312 12.234 78.0671 12.4453C77.418 12.6566 76.8671 12.951 76.4143 13.3283L75.3048 11.268C75.9388 10.7849 76.7011 10.4151 77.5916 10.1585C78.4822 9.90192 79.4256 9.77362 80.4218 9.77362ZM80.0369 20.0981C80.7463 20.0981 81.3728 19.9396 81.9161 19.6226C82.4746 19.2906 82.8671 18.8226 83.0935 18.2189V16.8151H80.1728C78.5426 16.8151 77.7275 17.351 77.7275 18.4227C77.7275 18.9359 77.9312 19.3434 78.3388 19.6453C78.7463 19.9472 79.3124 20.0981 80.0369 20.0981ZM93.2917 22.1585C92.3106 22.1585 91.3521 22.0302 90.4162 21.7736C89.4804 21.517 88.7332 21.1925 88.1747 20.8L89.2615 18.6491C89.8049 19.0113 90.454 19.3057 91.2087 19.5321C91.9785 19.7434 92.7332 19.8491 93.4728 19.8491C95.1634 19.8491 96.0087 19.4038 96.0087 18.5132C96.0087 18.0906 95.7898 17.7962 95.3521 17.6302C94.9294 17.4642 94.2426 17.3057 93.2917 17.1547C92.2955 17.0038 91.4804 16.8302 90.8464 16.634C90.2276 16.4378 89.6842 16.0981 89.2162 15.6151C88.7634 15.117 88.537 14.4302 88.537 13.5547C88.537 12.4076 89.0125 11.4944 89.9634 10.8151C90.9294 10.1208 92.2276 9.77362 93.8577 9.77362C94.6879 9.77362 95.5181 9.87173 96.3483 10.068C97.1785 10.2491 97.8577 10.4981 98.386 10.8151L97.2992 12.9661C96.2728 12.3623 95.1181 12.0604 93.8351 12.0604C93.0049 12.0604 92.371 12.1887 91.9332 12.4453C91.5106 12.6868 91.2993 13.0113 91.2993 13.4189C91.2993 13.8717 91.5257 14.1962 91.9785 14.3925C92.4464 14.5736 93.1634 14.7472 94.1294 14.9132C95.0955 15.0642 95.8879 15.2378 96.5068 15.434C97.1257 15.6302 97.654 15.9623 98.0917 16.4302C98.5445 16.8981 98.7709 17.5623 98.7709 18.4227C98.7709 19.5547 98.2804 20.4604 97.2992 21.1396C96.3181 21.8189 94.9823 22.1585 93.2917 22.1585Z" fill="black"/>
</svg>
