<svg width="24" height="24" viewBox="0 0 24 24" fill="none" xmlns="http://www.w3.org/2000/svg">
<path fill-rule="evenodd" clip-rule="evenodd" d="M12 24C18.6274 24 24 18.6274 24 12C24 5.37258 18.6274 0 12 0C5.37258 0 0 5.37258 0 12C0 18.6274 5.37258 24 12 24ZM8 12C9.10457 12 10 11.1046 10 10C10 8.89543 9.10457 8 8 8C6.89543 8 6 8.89543 6 10C6 11.1046 6.89543 12 8 12ZM18 10C18 11.1046 17.1046 12 16 12C14.8954 12 14 11.1046 14 10C14 8.89543 14.8954 8 16 8C17.1046 8 18 8.89543 18 10ZM7.78044 15.3748C7.43534 14.944 6.80639 14.8743 6.37531 15.2191C5.94404 15.5641 5.87412 16.1934 6.21913 16.6247L7 16C6.21913 16.6247 6.21936 16.625 6.2196 16.6253L6.22012 16.6259L6.2213 16.6274L6.22422 16.631L6.23232 16.641L6.25749 16.6713C6.27822 16.696 6.30688 16.7294 6.34321 16.7705C6.4158 16.8524 6.51946 16.9649 6.65227 17.0977C6.917 17.3625 7.30253 17.7129 7.79376 18.0637C8.76762 18.7593 10.2189 19.5 12 19.5C13.7811 19.5 15.2324 18.7593 16.2062 18.0637C16.6975 17.7129 17.083 17.3625 17.3477 17.0977C17.4805 16.9649 17.5842 16.8524 17.6568 16.7705C17.6931 16.7294 17.7218 16.696 17.7425 16.6713L17.7677 16.641L17.7758 16.631L17.7787 16.6274L17.7799 16.6259L17.7804 16.6253C17.7806 16.625 17.7809 16.6247 17 16L17.7809 16.6247C18.1259 16.1934 18.056 15.5641 17.6247 15.2191C17.194 14.8746 16.5658 14.9439 16.2205 15.3736L16.2199 15.3743L16.2196 15.3748L16.2111 15.3849C16.2011 15.3968 16.1838 15.417 16.1596 15.4444C16.1111 15.4991 16.0351 15.582 15.9335 15.6835C15.7295 15.8875 15.4275 16.1621 15.0438 16.4363C14.2676 16.9907 13.2189 17.5 12 17.5C10.7811 17.5 9.73238 16.9907 8.95624 16.4363C8.57247 16.1621 8.2705 15.8875 8.06648 15.6835C7.96492 15.582 7.88888 15.4991 7.84038 15.4444C7.81617 15.417 7.79892 15.3968 7.7889 15.3849L7.77944 15.3735L7.78006 15.3743L7.78044 15.3748ZM7.78044 15.3748C7.78065 15.375 7.78087 15.3753 7 16L7.78087 15.3753C7.78073 15.3751 7.78059 15.375 7.78044 15.3748Z" fill="#007AFF"/>
</svg>
