<svg width="571" height="3322" viewBox="0 0 571 3322" fill="none" xmlns="http://www.w3.org/2000/svg">
<path d="M551.819 2874.84L145.242 3049.19V3147.41L551.819 3321.77V3222.79L250.313 3096.4L551.819 2966.2V2874.84Z" fill="black" fill-opacity="0.05"/>
<path d="M543.681 2520.53C561.447 2553.53 570.33 2590.83 570.33 2632.46C570.33 2673.57 561.447 2710.62 543.681 2743.62C525.916 2776.61 501.298 2802.5 469.828 2821.28C437.85 2839.55 401.811 2848.69 361.712 2848.69C321.612 2848.69 285.828 2839.55 254.357 2821.28C222.887 2802.5 198.269 2776.61 180.503 2743.62C162.738 2710.62 153.855 2673.57 153.855 2632.46C153.855 2590.83 162.738 2553.53 180.503 2520.53C198.269 2487.54 222.887 2461.91 254.357 2443.63C285.828 2424.85 321.612 2415.46 361.712 2415.46C401.811 2415.46 437.85 2424.85 469.828 2443.63C501.298 2461.91 525.916 2487.54 543.681 2520.53ZM453.839 2718.49C477.188 2696.16 488.862 2667.48 488.862 2632.46C488.862 2597.43 477.188 2568.5 453.839 2545.66C430.49 2522.82 399.781 2511.4 361.712 2511.4C323.643 2511.4 292.934 2522.82 269.585 2545.66C246.236 2568.5 234.561 2597.43 234.561 2632.46C234.561 2667.48 246.236 2696.41 269.585 2719.25C292.934 2741.59 323.643 2752.75 361.712 2752.75C399.781 2752.75 430.49 2741.33 453.839 2718.49ZM158.423 1954.92L565 2129.27V2227.49L158.423 2401.85V2302.87L459.93 2176.48L158.423 2046.28V1954.92ZM553.579 1621.07C564.746 1648.99 570.33 1680.46 570.33 1715.48C570.33 1760.15 561.447 1799.49 543.681 1833.5C525.916 1867.5 501.298 1893.9 469.828 1912.68C437.85 1930.95 401.811 1940.09 361.712 1940.09C322.12 1940.09 286.589 1931.21 255.119 1913.44C223.141 1895.17 198.269 1870.04 180.503 1838.06C162.738 1806.09 153.855 1770.05 153.855 1729.95C153.855 1690.36 162.738 1655.08 180.503 1624.12C197.761 1592.65 222.379 1568.28 254.357 1551.02C285.828 1533.26 322.374 1524.38 363.996 1524.38C370.594 1524.38 379.985 1524.88 392.167 1525.9V1844.92C422.114 1839.33 445.971 1824.87 463.737 1801.52C480.994 1777.66 489.623 1748.22 489.623 1713.2C489.623 1668.53 474.903 1631.73 445.463 1602.8L504.09 1551.79C525.916 1570.06 542.412 1593.15 553.579 1621.07ZM256.641 1806.85C274.914 1828.17 299.025 1841.11 328.972 1845.68V1614.98C299.532 1619.04 275.676 1631.48 257.403 1652.29C239.13 1673.1 229.993 1698.99 229.993 1729.95C229.993 1760.4 238.876 1786.04 256.641 1806.85ZM0.0559082 1337.78H565V1432.96H0.0559082V1337.78ZM0.0559082 1117.7H565V1212.87H0.0559082V1117.7ZM0.0559082 897.612H565V992.78H0.0559082V897.612ZM555.863 571.694C565.507 593.52 570.33 619.661 570.33 650.116C570.33 680.571 565.254 707.22 555.102 730.061C544.443 752.902 529.976 770.668 511.703 783.358C492.923 795.54 471.858 801.631 448.509 801.631C411.963 801.631 382.776 788.18 360.95 761.278C338.616 733.868 327.45 690.977 327.45 632.605V527.534H321.358C292.934 527.534 271.107 536.163 255.88 553.421C240.652 570.171 233.038 595.297 233.038 628.798C233.038 651.639 236.592 674.227 243.698 696.56C250.804 718.387 260.702 736.914 273.392 752.141L204.106 789.449C187.863 768.13 175.427 742.497 166.799 712.549C158.17 682.602 153.855 650.878 153.855 617.377C153.855 557.482 168.321 511.799 197.254 480.329C225.678 448.351 268.823 432.362 326.688 432.362H565V522.205H515.51C533.276 533.879 546.727 550.376 555.863 571.694ZM485.816 687.424C495.968 673.719 501.044 654.685 501.044 630.32C501.044 606.464 495.714 585.399 485.055 567.126C473.888 548.345 458.153 535.148 437.85 527.534H390.644V625.752C390.644 680.571 408.663 707.981 444.702 707.981C461.96 707.981 475.665 701.129 485.816 687.424ZM536.067 49.8281C558.909 82.821 570.33 127.743 570.33 184.592C570.33 217.585 566.015 249.817 557.386 281.287C548.757 312.758 537.844 337.883 524.647 356.664L452.316 320.118C464.498 301.845 474.396 280.018 482.01 254.639C489.116 228.752 492.669 203.373 492.669 178.501C492.669 121.652 477.695 93.227 447.747 93.227C433.535 93.227 423.637 100.587 418.054 115.307C412.47 129.519 407.141 152.614 402.065 184.592C396.989 218.093 391.152 245.503 384.553 266.821C377.954 287.632 366.534 305.905 350.291 321.641C333.541 336.868 310.445 344.482 281.005 344.482C242.429 344.482 211.72 328.493 188.878 296.515C165.53 264.029 153.855 220.377 153.855 165.558C153.855 137.641 157.154 109.723 163.753 81.806C169.844 53.8888 178.219 31.0474 188.878 13.2819L261.21 49.8281C240.906 84.344 230.754 123.174 230.754 166.319C230.754 194.236 235.069 215.555 243.698 230.275C251.819 244.487 262.732 251.594 276.437 251.594C291.665 251.594 302.578 243.98 309.176 228.752C315.267 213.017 321.105 188.907 326.688 156.421C331.764 123.936 337.601 97.287 344.2 76.476C350.798 55.6653 361.965 37.8998 377.701 23.1798C393.436 7.95218 415.77 0.338379 444.702 0.338379C482.771 0.338379 513.226 16.835 536.067 49.8281Z" fill="black" fill-opacity="0.05"/>
</svg>
