<svg width="28" height="28" viewBox="0 0 28 28" fill="none" xmlns="http://www.w3.org/2000/svg">
<path d="M7.26318 13.3272L15.7789 9.81858C16.6195 9.4531 19.4702 8.28356 19.4702 8.28356C19.4702 8.28356 20.786 7.77188 20.6763 9.01452C20.6398 9.52619 20.3474 11.317 20.055 13.2541L19.1413 18.9921C19.1413 18.9921 19.0682 19.8328 18.4469 19.9789C17.8256 20.1251 16.8022 19.4673 16.6195 19.3211C16.4733 19.2114 13.8784 17.5668 12.9281 16.7627C12.6723 16.5434 12.3799 16.1048 12.9647 15.5932C14.2804 14.3871 15.852 12.8886 16.8022 11.9384C17.2408 11.4998 17.6794 10.4764 15.852 11.7191L10.6987 15.1911C10.6987 15.1911 10.1139 15.5566 9.01748 15.2277C7.92104 14.8988 6.64186 14.4602 6.64186 14.4602C6.64186 14.4602 5.7647 13.912 7.26318 13.3272Z" fill="white"/>
</svg>
