<svg width="28" height="28" viewBox="0 0 28 28" fill="none" xmlns="http://www.w3.org/2000/svg">
<path d="M14.7303 18.5943C14.7303 18.5943 14.9998 18.5649 15.1378 18.4194C15.2642 18.286 15.2598 18.0344 15.2598 18.0344C15.2598 18.0344 15.243 16.8593 15.7988 16.6858C16.3467 16.5152 17.05 17.8222 17.7965 18.3247C18.3603 18.7047 18.7883 18.6216 18.7883 18.6216L20.783 18.5943C20.783 18.5943 21.826 18.5312 21.3315 17.7261C21.2906 17.6601 21.043 17.1303 19.8489 16.042C18.5977 14.9028 18.7657 15.087 20.2717 13.1161C21.1891 11.9159 21.5558 11.1832 21.4411 10.8699C21.3323 10.5702 20.6574 10.6498 20.6574 10.6498L18.4122 10.6634C18.4122 10.6634 18.2456 10.6412 18.1222 10.7136C18.0017 10.7846 17.9235 10.9502 17.9235 10.9502C17.9235 10.9502 17.5686 11.8786 17.0945 12.6687C16.0947 14.3349 15.6951 14.4231 15.5315 14.3198C15.151 14.0782 15.2459 13.3506 15.2459 12.8336C15.2459 11.2183 15.4957 10.5451 14.7602 10.3709C14.5163 10.3129 14.3366 10.2748 13.7121 10.2684C12.9109 10.2605 12.233 10.2713 11.8489 10.4555C11.5932 10.5781 11.396 10.852 11.5165 10.8677C11.6648 10.8871 12.0008 10.9566 12.179 11.1947C12.4091 11.5023 12.401 12.192 12.401 12.192C12.401 12.192 12.5333 14.0933 12.0921 14.3292C11.7897 14.4912 11.3748 14.1607 10.483 12.6486C10.0266 11.8743 9.68183 11.0183 9.68183 11.0183C9.68183 11.0183 9.61533 10.8585 9.49627 10.7724C9.35242 10.6685 9.15152 10.6362 9.15152 10.6362L7.0181 10.6498C7.0181 10.6498 6.69744 10.6584 6.57984 10.7953C6.47542 10.9165 6.57179 11.1681 6.57179 11.1681C6.57179 11.1681 8.24222 15.0046 10.1339 16.9381C11.8686 18.7105 13.8377 18.5943 13.8377 18.5943H14.7303Z" fill="white"/>
</svg>
